<svg xmlns="http://www.w3.org/2000/svg" xmlns:xlink="http://www.w3.org/1999/xlink" width="40" zoomAndPan="magnify" viewBox="0 0 30 30.000001" height="40" preserveAspectRatio="xMidYMid meet" version="1.0"><defs><g/><clipPath id="6e85d2e7ff"><path d="M 2 0 L 29.515625 0 L 29.515625 29.03125 L 2 29.03125 Z M 2 0 " clip-rule="nonzero"/></clipPath><clipPath id="a5dea781de"><rect x="0" width="28" y="0" height="30"/></clipPath></defs><g clip-path="url(#6e85d2e7ff)"><g transform="matrix(1, 0, 0, 1, 2, 0.000000000000005692)"><g clip-path="url(#a5dea781de)"><g fill="#2d2c2c" fill-opacity="1"><g transform="translate(3.425325, 22.190549)"><g><path d="M 0.34375 4.84375 C -0.4375 4.84375 -1.117188 4.757812 -1.703125 4.59375 L -1.703125 1.6875 C -1.109375 1.832031 -0.5625 1.90625 -0.0625 1.90625 C 0.695312 1.90625 1.242188 1.664062 1.578125 1.1875 C 1.910156 0.71875 2.078125 -0.0195312 2.078125 -1.03125 L 2.078125 -16.453125 L 5.5625 -16.453125 L 5.5625 -1.0625 C 5.5625 0.863281 5.117188 2.328125 4.234375 3.328125 C 3.359375 4.335938 2.0625 4.84375 0.34375 4.84375 Z M 0.34375 4.84375 "/></g></g><g transform="translate(11.053904, 22.190549)"><g><path d="M 5.5625 -8.703125 L 6.703125 -8.703125 C 7.773438 -8.703125 8.578125 -8.914062 9.109375 -9.34375 C 9.648438 -9.769531 9.921875 -10.390625 9.921875 -11.203125 C 9.921875 -12.015625 9.695312 -12.613281 9.25 -13 C 8.800781 -13.394531 8.097656 -13.59375 7.140625 -13.59375 L 5.5625 -13.59375 Z M 13.4375 -11.328125 C 13.4375 -9.554688 12.878906 -8.203125 11.765625 -7.265625 C 10.660156 -6.328125 9.09375 -5.859375 7.0625 -5.859375 L 5.5625 -5.859375 L 5.5625 0 L 2.078125 0 L 2.078125 -16.453125 L 7.328125 -16.453125 C 9.316406 -16.453125 10.832031 -16.019531 11.875 -15.15625 C 12.914062 -14.300781 13.4375 -13.023438 13.4375 -11.328125 Z M 13.4375 -11.328125 "/></g></g></g></g></g></g></svg>